<svg xmlns="http://www.w3.org/2000/svg" width="720" height="260" viewBox="0 0 720 260" font-family="sans-serif">
<rect width="100%" height="100%" fill="#f7f9fc"/>
<text x="50" y="20" font-size="14" font-weight="bold" fill="#333">月度温度走势（每日最高/最低温）</text>
<line x1="50" y1="230" x2="670" y2="230" stroke="#e5e8ee" stroke-width="1"/>
<text x="42" y="234" font-size="10" fill="#999" text-anchor="end">19°</text>
<line x1="50" y1="217.5" x2="670" y2="217.5" stroke="#e5e8ee" stroke-width="1"/>
<text x="42" y="221.5" font-size="10" fill="#999" text-anchor="end">20°</text>
<line x1="50" y1="205" x2="670" y2="205" stroke="#e5e8ee" stroke-width="1"/>
<text x="42" y="209" font-size="10" fill="#999" text-anchor="end">21°</text>
<line x1="50" y1="192.5" x2="670" y2="192.5" stroke="#e5e8ee" stroke-width="1"/>
<text x="42" y="196.5" font-size="10" fill="#999" text-anchor="end">22°</text>
<line x1="50" y1="180" x2="670" y2="180" stroke="#e5e8ee" stroke-width="1"/>
<text x="42" y="184" font-size="10" fill="#999" text-anchor="end">23°</text>
<line x1="50" y1="167.5" x2="670" y2="167.5" stroke="#e5e8ee" stroke-width="1"/>
<text x="42" y="171.5" font-size="10" fill="#999" text-anchor="end">24°</text>
<line x1="50" y1="155" x2="670" y2="155" stroke="#e5e8ee" stroke-width="1"/>
<text x="42" y="159" font-size="10" fill="#999" text-anchor="end">25°</text>
<line x1="50" y1="142.5" x2="670" y2="142.5" stroke="#e5e8ee" stroke-width="1"/>
<text x="42" y="146.5" font-size="10" fill="#999" text-anchor="end">26°</text>
<line x1="50" y1="130" x2="670" y2="130" stroke="#e5e8ee" stroke-width="1"/>
<text x="42" y="134" font-size="10" fill="#999" text-anchor="end">27°</text>
<line x1="50" y1="117.5" x2="670" y2="117.5" stroke="#e5e8ee" stroke-width="1"/>
<text x="42" y="121.5" font-size="10" fill="#999" text-anchor="end">28°</text>
<line x1="50" y1="105" x2="670" y2="105" stroke="#e5e8ee" stroke-width="1"/>
<text x="42" y="109" font-size="10" fill="#999" text-anchor="end">29°</text>
<line x1="50" y1="92.5" x2="670" y2="92.5" stroke="#e5e8ee" stroke-width="1"/>
<text x="42" y="96.5" font-size="10" fill="#999" text-anchor="end">30°</text>
<line x1="50" y1="80" x2="670" y2="80" stroke="#e5e8ee" stroke-width="1"/>
<text x="42" y="84" font-size="10" fill="#999" text-anchor="end">31°</text>
<line x1="50" y1="67.5" x2="670" y2="67.5" stroke="#e5e8ee" stroke-width="1"/>
<text x="42" y="71.5" font-size="10" fill="#999" text-anchor="end">32°</text>
<line x1="50" y1="55" x2="670" y2="55" stroke="#e5e8ee" stroke-width="1"/>
<text x="42" y="59" font-size="10" fill="#999" text-anchor="end">33°</text>
<line x1="50" y1="42.5" x2="670" y2="42.5" stroke="#e5e8ee" stroke-width="1"/>
<text x="42" y="46.5" font-size="10" fill="#999" text-anchor="end">34°</text>
<line x1="50" y1="30" x2="670" y2="30" stroke="#e5e8ee" stroke-width="1"/>
<text x="42" y="34" font-size="10" fill="#999" text-anchor="end">35°</text>
<polyline points="50,132.5 81,133.75 112,103.74999999999999 143,83.75 174,82.5 205,84.99999999999999 236,80 267,59.999999999999986 298,91.24999999999999 329,80 360,76.25 391,75.00000000000001 422,113.74999999999999 453,94.99999999999999 484,66.24999999999999 515,37.500000000000014 546,30 577,36.25 608,36.25 639,61.25 670,68.75000000000001" fill="none" stroke="#e74c3c" stroke-width="2"/>
<polyline points="50,221.25 81,220 112,203.74999999999997 143,172.49999999999997 174,161.25 205,166.24999999999997 236,180 267,181.25000000000003 298,196.25 329,178.74999999999997 360,170 391,167.5 422,167.5 453,180 484,172.49999999999997 515,152.5 546,141.25 577,155 608,152.5 639,150 670,166.24999999999997" fill="none" stroke="#3498db" stroke-width="2"/>
<circle cx="560" cy="236" r="4" fill="#e74c3c"/><text x="570" y="240" font-size="11" fill="#555">最高温</text>
<circle cx="630" cy="236" r="4" fill="#3498db"/><text x="640" y="240" font-size="11" fill="#555">最低温</text>
</svg>